<?xml version="1.0" encoding="UTF-8"?>
<!-- Utiligo app icon (favicon). Traced from newsitelogo.png. -->
<svg xmlns="http://www.w3.org/2000/svg" width="564" height="564" viewBox="0 0 564 564" role="img">
<path fill="#ffffff" fill-rule="evenodd" d="M262 563.41C260.07 563.19 254.22 562.53 249 561.94C198.41 556.26 146.95 534.82 106 502.38C95.06 493.71 70.29 468.94 61.62 458C29.75 417.77 10.24 371.86 2.35 318.5C-0.14 301.67 -0.14 262.33 2.35 245.5C7.79 208.72 18.77 175.31 35.13 145.73C41.71 133.83 53.09 116.77 61.62 106C70.29 95.06 95.06 70.29 106 61.62C146.23 29.75 192.14 10.24 245.5 2.35C262.33 -0.14 301.67 -0.14 318.5 2.35C355.28 7.79 388.69 18.77 418.27 35.13C430.17 41.71 447.23 53.09 458 61.62C468.94 70.29 493.71 95.06 502.38 106C534.25 146.23 553.76 192.14 561.65 245.5C564.14 262.33 564.14 301.67 561.65 318.5C554.91 364.09 540.47 402.42 516.44 438.5C505.43 455.02 497.15 464.99 481.07 481.07C464.99 497.15 455.02 505.43 438.5 516.44C403 540.08 365.54 554.39 321.5 561.13C309.1 563.03 271.22 564.48 262 563.41ZM205.03 471.96C224.34 469.59 244.51 461.94 260.74 450.81C275.37 440.8 285.32 429.94 310.76 396.26C323.82 378.98 347.77 347.38 364 326.03C397.56 281.86 410.75 264.47 436.4 230.57L454.5 206.64 454.77 221.57L455.04 236.5 475.26 256.75C486.38 267.89 495.82 277 496.24 277C496.66 277 497 242.35 497 200L497 123 420.37 123L343.75 123 348.07 127.75C350.45 130.36 359.67 140.04 368.56 149.25L384.73 166 399.86 166C408.19 166 414.99 166.34 414.97 166.75C414.96 167.16 410.78 172.9 405.69 179.5C400.6 186.1 364.53 233.35 325.54 284.5C286.55 335.65 251.76 381.24 248.22 385.81C233.1 405.36 213.11 416 191.5 416C166.53 416 143.51 401.35 132.55 378.5C125.74 364.3 126 369.79 126 240.05L126 123 97.46 123L68.91 123 69.26 244.25C69.6 362.99 69.65 365.69 71.7 374.5C77.51 399.55 88.34 419.48 105.44 436.54C132.38 463.43 168.84 476.4 205.03 471.96ZM469.71 447.85C477.29 437.31 486.31 424.84 489.75 420.13C493.19 415.42 496 411.21 496 410.78C496 410.35 458.73 410 413.19 410L330.37 410 327.84 412.75C326.45 414.26 320.54 421.81 314.71 429.52C304.87 442.53 292.04 456.16 282.5 463.75L278.5 466.93 367.21 466.97L455.92 467 469.71 447.85ZM198 386.98C207.41 385.52 219.77 379.17 226.83 372.18C229.98 369.05 237.12 360.43 242.69 353C248.26 345.57 256.46 334.77 260.92 329C265.37 323.23 278.42 306.12 289.91 291C301.4 275.88 313.37 260.18 316.51 256.11C330.23 238.36 360.73 198.23 361.5 196.93C362.71 194.88 362.6 194.98 324.28 229.32C305.45 246.2 289.82 260 289.53 260C289.24 260 289 240.67 289 217.05L289 174.11 271.25 157.71C261.49 148.69 249 137.21 243.5 132.19L233.5 123.07 232.97 229.79C232.56 311.57 232.14 337.43 231.18 340.5C226.63 354.93 221.68 363.3 212.86 371.47C204.14 379.54 194.1 384.09 180.5 386.11C179.14 386.32 185.9 387.71 189 387.86C190.38 387.93 194.43 387.53 198 386.98Z"/>
<path fill="#000000" fill-rule="evenodd" d="M176.6 471.86C149.61 468.4 125.24 456.3 105.44 436.54C88.34 419.48 77.51 399.55 71.7 374.5C69.65 365.69 69.6 362.99 69.26 244.25L68.91 123 97.46 123L126 123 126 240.05C126 369.79 125.74 364.3 132.55 378.5C143.51 401.35 166.53 416 191.5 416C213.11 416 233.1 405.36 248.22 385.81C251.76 381.24 286.55 335.65 325.54 284.5C364.53 233.35 400.6 186.1 405.69 179.5C410.78 172.9 414.96 167.16 414.97 166.75C414.99 166.34 408.19 166 399.86 166L384.73 166 368.56 149.25C359.67 140.04 350.45 130.36 348.07 127.75L343.75 123 420.37 123L497 123 497 200C497 242.35 496.66 277 496.24 277C495.82 277 486.38 267.89 475.26 256.75L455.04 236.5 454.77 221.57L454.5 206.64 436.4 230.57C410.75 264.47 397.56 281.86 364 326.03C347.77 347.38 323.82 378.98 310.76 396.26C285.32 429.94 275.37 440.8 260.74 450.81C235.83 467.88 205.23 475.54 176.6 471.86ZM282.5 463.75C292.04 456.16 304.87 442.53 314.71 429.52C320.54 421.81 326.45 414.26 327.84 412.75L330.37 410 413.19 410C458.73 410 496 410.35 496 410.78C496 411.21 493.19 415.42 489.75 420.13C486.31 424.84 477.29 437.31 469.71 447.85L455.92 467 367.21 466.97L278.5 466.93 282.5 463.75ZM183 387C181.07 386.59 179.95 386.2 180.5 386.11C194.1 384.09 204.14 379.54 212.86 371.47C221.68 363.3 226.63 354.93 231.18 340.5C232.14 337.43 232.56 311.57 232.97 229.79L233.5 123.07 243.5 132.19C249 137.21 261.49 148.69 271.25 157.71L289 174.11 289 217.05C289 240.67 289.24 260 289.53 260C289.82 260 305.45 246.2 324.28 229.32C362.6 194.98 362.71 194.88 361.5 196.93C360.73 198.23 330.23 238.36 316.51 256.11C313.37 260.18 301.4 275.88 289.91 291C278.42 306.12 265.37 323.23 260.92 329C256.46 334.77 248.26 345.57 242.69 353C229.17 371.02 223.13 376.86 212.8 381.91C202.01 387.19 192 388.89 183 387Z"/>
</svg>
